<?xml version="1.0" standalone="yes"?>
<svg xmlns="http://www.w3.org/2000/svg" width="500" height="500">
<path style="fill:#ffffff; stroke:none;" d="M0 0L0 500L500 500L500 0L0 0z"/>
<path style="fill:#fede59; stroke:none;" d="M412 196L413 197L412 196z"/>
<path style="fill:#b39f51; stroke:none;" d="M413 196L414 197L413 196z"/>
<path style="fill:#817645; stroke:none;" d="M414 196L414 197L417 197L414 196z"/>
<path style="fill:#b39f51; stroke:none;" d="M417 196L418 197L417 196M409 197L410 198L409 197z"/>
<path style="fill:#817645; stroke:none;" d="M410 197L411 198L410 197z"/>
<path style="fill:#252524; stroke:none;" d="M381 232C381.015 226.428 384.282 217.208 381.504 212.228C378.958 207.664 369.13 207.552 366.652 212.148C363.714 217.598 364.229 224.151 363.165 230C360.282 245.847 357.998 258.86 358 275C362.865 274.747 368.106 273.234 370.86 268.815C375.467 261.424 377.119 251.001 381.258 243C387.063 231.781 396.426 221.151 400 209L402 209C403.673 224.358 393.474 241.372 398.178 256.981C402.018 269.721 418.058 255.437 418 247L414 252L412 252C407.99 234.601 419.523 220.522 419.735 204.001C419.896 191.513 404.715 199.086 400.174 204.015C397.367 207.061 394.938 210.523 392.698 214C388.78 220.082 385.866 226.579 381 232z"/>
<path style="fill:#817645; stroke:none;" d="M418 197L419 198L418 197M406 198L407 199L406 198z"/>
<path style="fill:#b39f51; stroke:none;" d="M419 198L420 199L419 198M404 199L405 200L404 199z"/>
<path style="fill:#817645; stroke:none;" d="M419.333 199.667L419.667 200.333L419.333 199.667z"/>
<path style="fill:#b39f51; stroke:none;" d="M403 200L404 201L403 200z"/>
<path style="fill:#fede59; stroke:none;" d="M347 201L348 202L347 201z"/>
<path style="fill:#b39f51; stroke:none;" d="M348 201L348 202L351 202L348 201z"/>
<path style="fill:#fede59; stroke:none;" d="M351 201L352 202L351 201z"/>
<path style="fill:#b39f51; stroke:none;" d="M402 201L403 202L402 201M344 202L345 203L344 202z"/>
<path style="fill:#817645; stroke:none;" d="M345 202L346 203L345 202z"/>
<path style="fill:#252524; stroke:none;" d="M327 217C341.024 218.062 331.217 240.674 329.453 249C328.708 252.516 328.656 256.702 326.272 259.61C321.781 265.089 312.797 264.86 315 274L340 266L344 269C345.178 266.261 348.037 260.586 345.218 258.023C343.166 256.157 339.779 257.091 338.777 253.852C337.599 250.042 340.252 243.828 340.999 240C343.237 228.537 341.131 214.334 355 211C353.535 193.248 330.542 206.472 327 217z"/>
<path style="fill:#fede59; stroke:none;" d="M353 202L354 203L353 202z"/>
<path style="fill:#817645; stroke:none;" d="M401 202L402 203L401 202z"/>
<path style="fill:#fede59; stroke:none;" d="M420 202C419.858 218.947 408.553 234.338 412 252L418 246C418.495 254.293 403.166 270.414 398.264 257.956C392.448 243.175 401.351 224.88 402 210C397.434 212.99 395.33 219.434 392.471 224C383.672 238.048 376.172 251.914 372 268L428 262L422 202L420 202z"/>
<path style="fill:#b39f51; stroke:none;" d="M304 203L305 204L304 203z"/>
<path style="fill:#817645; stroke:none;" d="M305 203L306 204L305 203z"/>
<path style="fill:#252524; stroke:none;" d="M281 251C280.558 242.572 286.302 228.658 281.972 221.133C272.851 205.282 258.067 232.773 256 240L264 235C263.154 241.554 260.201 249.524 262.858 255.996C270.634 274.936 285.745 252.666 289 244L290 244C290.005 251.48 291.855 264.763 285.721 270.366C280.665 274.986 272.321 278.777 266 281.305C263.21 282.421 258.523 283.587 257.882 287.101C255.969 297.583 278.249 293.767 283 291.787C300.184 284.626 301.92 273.554 309 258L305 258C304.599 252.62 306.867 248.271 307.24 243C307.852 234.343 306.144 225.577 307.184 217C307.459 214.737 312.206 202.947 306.218 204.06C302.438 204.763 300.727 213.972 299.656 217C295.637 228.361 290.117 242.83 281 251z"/>
<path style="fill:#b39f51; stroke:none;" d="M308 203L309 204L308 203z"/>
<path style="fill:#fede59; stroke:none;" d="M341 203L342 204L341 203z"/>
<path style="fill:#817645; stroke:none;" d="M342 203L343 204L342 203z"/>
<path style="fill:#b39f51; stroke:none;" d="M400 203L401 204L400 203z"/>
<path style="fill:#fede59; stroke:none;" d="M309 204L310 205L309 204z"/>
<path style="fill:#b39f51; stroke:none;" d="M339 204L340 205L339 204z"/>
<path style="fill:#fede59; stroke:none;" d="M398 204C386.072 207.527 367.383 209.383 355 208C352.739 211.913 347.763 212.261 345.653 216.214C341.406 224.168 337.524 248.543 340 257C346.433 255.941 349.344 262.795 344.436 267.397C341.879 269.794 336.325 269.58 333 270L333 269L339 268L339 267L321 271L321 272L326 273L333 271.667L357 269C357 256.932 359.519 246.75 361.41 235C362.582 227.721 362.422 218.727 366.303 212.133C369.768 206.248 378.99 207.181 381.968 213.019C384.395 217.776 381.642 225.919 381 231C386.055 227.909 398.189 209.712 398 204z"/>
<path style="fill:#b39f51; stroke:none;" d="M399 204L400 205L399 204M303 205L304 206L303 205z"/>
<path style="fill:#fede59; stroke:none;" d="M336 205L337 206L336 205z"/>
<path style="fill:#817645; stroke:none;" d="M337 205L338 206L337 205z"/>
<path style="fill:#fede59; stroke:none;" d="M354 205L355 206L354 205z"/>
<path style="fill:#817645; stroke:none;" d="M303 206L304 207L303 206z"/>
<path style="fill:#b39f51; stroke:none;" d="M334 206L335 207L334 206z"/>
<path style="fill:#817645; stroke:none;" d="M335 206L336 207L335 206z"/>
<path style="fill:#b39f51; stroke:none;" d="M354 206L355 207L354 206z"/>
<path style="fill:#817645; stroke:none;" d="M419 206L419 209L420 209L419 206z"/>
<path style="fill:#fede59; stroke:none;" d="M331 207L332 208L331 207z"/>
<path style="fill:#817645; stroke:none;" d="M332 207L333 208L332 207M397 207L398 208L397 207z"/>
<path style="fill:#b39f51; stroke:none;" d="M302 208L303 209L302 208z"/>
<path style="fill:#817645; stroke:none;" d="M309 208L310 209L309 208z"/>
<path style="fill:#b39f51; stroke:none;" d="M330 208L331 209L330 208M370.667 208.333L371.333 208.667L370.667 208.333z"/>
<path style="fill:#817645; stroke:none;" d="M372 208L372 209L377 209L372 208z"/>
<path style="fill:#b39f51; stroke:none;" d="M377.667 208.333L378.333 208.667L377.667 208.333M396 208L397 209L396 208z"/>
<path style="fill:#817645; stroke:none;" d="M302 209L303 210L302 209z"/>
<path style="fill:#b39f51; stroke:none;" d="M309 209L310 210L309 209z"/>
<path style="fill:#817645; stroke:none;" d="M367 209L368 210L367 209M379 209L380 210L379 209z"/>
<path style="fill:#b39f51; stroke:none;" d="M395 209L396 210L395 209z"/>
<path style="fill:#817645; stroke:none;" d="M400 209L401 210L400 209z"/>
<path style="fill:#b39f51; stroke:none;" d="M401 209L402 210L401 209M419 209L420 210L419 209z"/>
<path style="fill:#817645; stroke:none;" d="M161 210L162 211L161 210z"/>
<path style="fill:#252524; stroke:none;" d="M132 268C136.038 276.19 125.658 280.631 128.785 287.677C130.257 290.993 133.965 288.621 135.61 286.851C138.813 283.405 139.906 278.543 143.213 275.133C147.269 270.949 153.886 268.691 159 266C160.039 274.046 161.916 283.555 165.225 290.985C166.543 293.944 171.087 298.506 173.396 293.64C175.258 289.716 172.811 284.017 172.289 280C170.575 266.8 171.032 256.454 183 249L183 248L173 250C173.001 244.28 173.928 238.694 173.996 233C174.06 227.601 175.608 218.751 172.258 214.147C170.091 211.17 163.926 208.727 161.279 212.333C157.124 217.991 158.556 226.544 156.957 233C154.98 240.979 149.955 248.704 146.244 256C143.087 262.206 140.014 269.942 132 268z"/>
<path style="fill:#817645; stroke:none;" d="M165.667 210.333L166.333 210.667L165.667 210.333z"/>
<path style="fill:#b39f51; stroke:none;" d="M167.667 210.333L168.333 210.667L167.667 210.333z"/>
<path style="fill:#817645; stroke:none;" d="M329 210L330 211L329 210M345 210L345 212L347 212L345 210z"/>
<path style="fill:#fede59; stroke:none;" d="M346.667 210.333L347.333 210.667L346.667 210.333z"/>
<path style="fill:#817645; stroke:none;" d="M348 210L349 211L348 210z"/>
<path style="fill:#b39f51; stroke:none;" d="M366 210L367 211L366 210z"/>
<path style="fill:#817645; stroke:none;" d="M402 210L402 213L403 213L402 210z"/>
<path style="fill:#b39f51; stroke:none;" d="M170 211L171 212L170 211M243 211L244 212L243 211z"/>
<path style="fill:#fede59; stroke:none;" d="M244 211L245 212L244 211z"/>
<path style="fill:#b39f51; stroke:none;" d="M301 211L302 212L301 211M308 211L309 212L308 211M328 211L329 212L328 211z"/>
<path style="fill:#817645; stroke:none;" d="M352 211L353 212L352 211M366 211L367 212L366 211M381 211L382 212L381 211M394 211L395 212L394 211M399 211L400 212L399 211M418 211L419 212L418 211z"/>
<path style="fill:#b39f51; stroke:none;" d="M160 212L161 213L160 212M171 212L172 213L171 212z"/>
<path style="fill:#fede59; stroke:none;" d="M241 212L242 213L241 212z"/>
<path style="fill:#252524; stroke:none;" d="M226 276C221.309 276 208.545 278.996 205.032 276.088C199.837 271.788 206.279 251.128 207.13 245C208.128 237.824 209.855 230.244 209.945 223.001C209.973 220.788 209.862 216.677 206.772 216.632C200.436 216.539 198.499 225.379 197.612 230C194.48 246.319 191.245 262.625 188.413 279C187.646 283.432 180.296 295.761 187.228 298.153C191.088 299.485 195.288 295.567 198 293.382C206.751 286.331 214.861 282.494 225 278C223.701 282.425 218.079 290.331 223.434 294.153C226.966 296.674 231.407 292.471 234 290.382C243.454 282.765 251.815 278.421 263 274C257.23 269.628 243.381 277.172 240.618 269.938C239.246 266.344 241.167 261.617 241.725 258C243.263 248.043 244.825 238.012 245.95 228C246.366 224.292 248.761 216.573 245.397 213.662C240.032 209.02 235.744 220.668 235.015 224C231.38 240.61 226.351 258.98 226 276z"/>
<path style="fill:#817645; stroke:none;" d="M245 212L246 213L245 212z"/>
<path style="fill:#fede59; stroke:none;" d="M305 258L311 258C305.561 263.335 303.331 267.304 303 275L314 274C313.447 264.304 322.844 265.52 326.567 258.787C332.487 248.083 333.9 230.047 334 218L327 218L328 212L309.028 214.742L308 227L305 258z"/>
<path style="fill:#817645; stroke:none;" d="M328 212L329 213L328 212z"/>
<path style="fill:#b39f51; stroke:none;" d="M349 212L350 213L349 212M382 212L383 213L382 212M393 212L394 213L393 212M418 212L419 213L418 212z"/>
<path style="fill:#817645; stroke:none;" d="M160 213L161 214L160 213z"/>
<path style="fill:#b39f51; stroke:none;" d="M172 213L173 214L172 213z"/>
<path style="fill:#817645; stroke:none;" d="M246 213L247 214L246 213z"/>
<path style="fill:#fede59; stroke:none;" d="M300 213L301 214L300 213z"/>
<path style="fill:#b39f51; stroke:none;" d="M328 213L329 214L328 213M347 213L348 214L347 213M365.333 213.667L365.667 214.333L365.333 213.667z"/>
<path style="fill:#817645; stroke:none;" d="M382 213L383 214L382 213z"/>
<path style="fill:#b39f51; stroke:none;" d="M398 213L399 214L398 213z"/>
<path style="fill:#fede59; stroke:none;" d="M173 214L174 215L173 214z"/>
<path style="fill:#817645; stroke:none;" d="M300 214L301 215L300 214M307 214L307 217L308 217L307 214M327 214L328 215L327 214M332 214L333 215L332 214M392 214L393 215L392 214M417 214L418 215L417 214z"/>
<path style="fill:#b39f51; stroke:none;" d="M159 215L160 216L159 215z"/>
<path style="fill:#817645; stroke:none;" d="M173 215L174 216L173 215z"/>
<path style="fill:#b39f51; stroke:none;" d="M205 215L206 216L205 215z"/>
<path style="fill:#817645; stroke:none;" d="M206 215L207 216L206 215z"/>
<path style="fill:#b39f51; stroke:none;" d="M207 215L208 216L207 215M238 215L239 216L238 215z"/>
<path style="fill:#fede59; stroke:none;" d="M247 215L248 216L247 215M279 217L279 218C288.131 224.956 281.426 240.079 281 250C290.717 244.67 296.705 225.111 300 215L279 217z"/>
<path style="fill:#b39f51; stroke:none;" d="M345 215L346 216L345 215z"/>
<path style="fill:#817645; stroke:none;" d="M365 215L366 216L365 215z"/>
<path style="fill:#b39f51; stroke:none;" d="M391 215L392 216L391 215M397 215L398 216L397 215M401 215L402 216L401 215M417 215L418 216L417 215z"/>
<path style="fill:#817645; stroke:none;" d="M159 216L160 217L159 216z"/>
<path style="fill:#b39f51; stroke:none;" d="M204 216L205 217L204 216M247.333 216.667L247.667 217.333L247.333 216.667M299 216L300 217L299 216z"/>
<path style="fill:#817645; stroke:none;" d="M382 216L383 217L382 216M396 216L397 217L396 216M401.333 216.667L401.667 217.333L401.333 216.667z"/>
<path style="fill:#b39f51; stroke:none;" d="M114 217L114 218L117 218L114 217z"/>
<path style="fill:#817645; stroke:none;" d="M117 217L117 218L121 218L117 217z"/>
<path style="fill:#b39f51; stroke:none;" d="M121 217L122 218L121 217z"/>
<path style="fill:#fede59; stroke:none;" d="M122 217L123 218L122 217z"/>
<path style="fill:#b39f51; stroke:none;" d="M174 217L174 229L175 229L174 217M203 217L204 218L203 217z"/>
<path style="fill:#817645; stroke:none;" d="M209 217L210 218L209 217z"/>
<path style="fill:#b39f51; stroke:none;" d="M236 217L237 218L236 217M269.667 217.333L270.333 217.667L269.667 217.333z"/>
<path style="fill:#817645; stroke:none;" d="M271 217L272 218L271 217M277 217L278 218L277 217z"/>
<path style="fill:#b39f51; stroke:none;" d="M278 217L279 218L278 217z"/>
<path style="fill:#817645; stroke:none;" d="M299 217L300 218L299 217z"/>
<path style="fill:#b39f51; stroke:none;" d="M307 217L307 229L308 229L307 217M327.667 217.333L328.333 217.667L327.667 217.333z"/>
<path style="fill:#817645; stroke:none;" d="M329 217L329 218L333 218L329 217M344.333 217.667L344.667 218.333L344.333 217.667z"/>
<path style="fill:#b39f51; stroke:none;" d="M364.333 217.667L364.667 218.333L364.333 217.667M382 217L382 220L383 220L382 217z"/>
<path style="fill:#817645; stroke:none;" d="M390 217L391 218L390 217z"/>
<path style="fill:#b39f51; stroke:none;" d="M396 217L397 218L396 217z"/>
<path style="fill:#817645; stroke:none;" d="M416 217L417 218L416 217z"/>
<path style="fill:#252524; stroke:none;" d="M97 230C86.994 231.629 85.9232 250.238 82 258C83.7632 260.846 81.4643 262.523 79 264L78 261L78 260L80 258C70.2027 262.326 78.4584 277.724 77.2855 286C76.8949 288.756 74.9157 295.924 78.4336 297.338C82.8152 299.099 84.8532 293.014 85.571 290C87.3944 282.343 86.2675 266.175 97.9375 265.678C102.879 265.468 100.865 272.26 100.439 275C98.8996 284.91 96.1078 297.215 99 307L111.142 299.787L117.317 261.133L132 249L134 249L134 243L133 243L132 248L120 250L123 245C120.855 238.064 129.763 224.648 125.218 219.742C122.547 216.86 114.703 217.171 112.417 220.318C107.05 227.709 109.579 239.354 104.146 246.775C97.1319 256.355 92.5637 247.824 94.8557 240C95.8314 236.669 96.6984 233.459 97 230z"/>
<path style="fill:#817645; stroke:none;" d="M124 218L125 219L124 218z"/>
<path style="fill:#b39f51; stroke:none;" d="M158.333 218.667L158.667 219.333L158.333 218.667M202 218L203 219L202 218z"/>
<path style="fill:#817645; stroke:none;" d="M236 218L237 219L236 218z"/>
<path style="fill:#fede59; stroke:none;" d="M247 218L248 219L247 218M247 220L241 273L264 272L250 279L250 280C270.305 279.581 296.232 273.303 289 247L288 247C283.921 255.32 270.287 273.52 262.742 255.999C260.198 250.092 262.735 242.161 263 236L255 241L268 218L247 220z"/>
<path style="fill:#817645; stroke:none;" d="M268 218L269 219L268 218z"/>
<path style="fill:#b39f51; stroke:none;" d="M280 218L281 219L280 218z"/>
<path style="fill:#817645; stroke:none;" d="M395 218L396 219L395 218z"/>
<path style="fill:#b39f51; stroke:none;" d="M112 219L113 220L112 219z"/>
<path style="fill:#fede59; stroke:none;" d="M126 219L127 220L126 219M200 219L201 220L200 219z"/>
<path style="fill:#817645; stroke:none;" d="M201 219L202 220L201 219z"/>
<path style="fill:#fede59; stroke:none;" d="M210 219L211 220L210 219z"/>
<path style="fill:#817645; stroke:none;" d="M267 219L268 220L267 219M281 219L282 220L281 219z"/>
<path style="fill:#b39f51; stroke:none;" d="M298 219L299 220L298 219z"/>
<path style="fill:#817645; stroke:none;" d="M334 219L334 222L335 222L334 219z"/>
<path style="fill:#b39f51; stroke:none;" d="M344 219L345 220L344 219z"/>
<path style="fill:#817645; stroke:none;" d="M364 219L365 220L364 219M389 219L390 220L389 219z"/>
<path style="fill:#b39f51; stroke:none;" d="M400 219L401 220L400 219z"/>
<path style="fill:#817645; stroke:none;" d="M415 219L416 220L415 219M126 220L127 221L126 220M158 220L159 221L158 220z"/>
<path style="fill:#b39f51; stroke:none;" d="M210.333 220.667L210.667 221.333L210.333 220.667M235 220L236 221L235 220z"/>
<path style="fill:#817645; stroke:none;" d="M266 220L267 221L266 220M282 220L283 221L282 220M298 220L299 221L298 220z"/>
<path style="fill:#b39f51; stroke:none;" d="M388 220L389 221L388 220z"/>
<path style="fill:#817645; stroke:none;" d="M394 220L395 221L394 220M400 220L401 221L400 220z"/>
<path style="fill:#b39f51; stroke:none;" d="M415 220L416 221L415 220M111 221L112 222L111 221M199 221L200 222L199 221z"/>
<path style="fill:#fede59; stroke:none;" d="M211 222L210 222C209.991 235.102 207.608 249.12 205.196 262C204.529 265.564 201.64 273.379 205.448 275.958C209.338 278.592 220.2 275.003 225 275L235 221C228.102 221.872 217.399 225.162 211 222z"/>
<path style="fill:#817645; stroke:none;" d="M235 221L236 222L235 221z"/>
<path style="fill:#b39f51; stroke:none;" d="M265 221L266 222L265 221M283 221L284 222L283 221M363.333 221.667L363.667 222.333L363.333 221.667z"/>
<path style="fill:#817645; stroke:none;" d="M388 221L389 222L388 221M199 222L200 223L199 222z"/>
<path style="fill:#b39f51; stroke:none;" d="M264 222L265 223L264 222z"/>
<path style="fill:#817645; stroke:none;" d="M283 222L283 228L284 228L283 222M297 222L298 223L297 222z"/>
<path style="fill:#b39f51; stroke:none;" d="M387 222L388 223L387 222M393 222L394 223L393 222z"/>
<path style="fill:#817645; stroke:none;" d="M414 222L415 223L414 222z"/>
<path style="fill:#fede59; stroke:none;" d="M110 223L111 224L110 223z"/>
<path style="fill:#817645; stroke:none;" d="M126 223L127 224L126 223z"/>
<path style="fill:#b39f51; stroke:none;" d="M157 223L157 227L158 227L157 223z"/>
<path style="fill:#817645; stroke:none;" d="M246.333 223.667L246.667 224.333L246.333 223.667M343.333 223.667L343.667 224.333L343.333 223.667M363 223L364 224L363 223M381 223L381 226L382 226L381 223z"/>
<path style="fill:#b39f51; stroke:none;" d="M399 223L400 224L399 223M414.333 223.667L414.667 224.333L414.333 223.667z"/>
<path style="fill:#817645; stroke:none;" d="M110 224L111 225L110 224z"/>
<path style="fill:#b39f51; stroke:none;" d="M126 224L127 225L126 224M198 224L199 225L198 224M234.333 224.667L234.667 225.333L234.333 224.667z"/>
<path style="fill:#817645; stroke:none;" d="M263 224L264 225L263 224z"/>
<path style="fill:#b39f51; stroke:none;" d="M296 224L297 225L296 224M386 224L387 225L386 224M392 224L393 225L392 224z"/>
<path style="fill:#817645; stroke:none;" d="M399.333 224.667L399.667 225.333L399.333 224.667z"/>
<path style="fill:#fede59; stroke:none;" d="M126 225L127 226L126 225M173 250L184 248C169.11 258.695 171.878 271.213 174 288L186.062 285.397L189.92 268L198 225L175.742 228.028L173 250z"/>
<path style="fill:#817645; stroke:none;" d="M198 225L199 226L198 225z"/>
<path style="fill:#b39f51; stroke:none;" d="M246 225L246 228L247 228L246 225M262 225L263 226L262 225M333.333 225.667L333.667 226.333L333.333 225.667M343.333 225.667L343.667 226.333L343.333 225.667M362 225L363 229C360.994 230.127 360.994 230.873 363 232L362 225z"/>
<path style="fill:#817645; stroke:none;" d="M391 225L392 226L391 225M234 226L235 227L234 226z"/>
<path style="fill:#b39f51; stroke:none;" d="M295 226L296 227L295 226z"/>
<path style="fill:#817645; stroke:none;" d="M363 226L364 227L363 226z"/>
<path style="fill:#b39f51; stroke:none;" d="M381.333 226.667L381.667 227.333L381.333 226.667z"/>
<path style="fill:#817645; stroke:none;" d="M385 226L386 227L385 226M390 226L391 227L390 226M413 226L414 227L413 226z"/>
<path style="fill:#b39f51; stroke:none;" d="M109.333 227.667L109.667 228.333L109.333 227.667M125 227L126 228L125 227z"/>
<path style="fill:#817645; stroke:none;" d="M157 227L157 231L158 231L157 227M209.333 227.667L209.667 228.333L209.333 227.667M261 227L262 228L261 227M295 227L296 228L295 227M333 227L333 233L334 233L333 227M362.333 227.667L362.667 228.333L362.333 227.667z"/>
<path style="fill:#b39f51; stroke:none;" d="M413 227L414 228L413 227M197 228L198 229L197 228M283.333 228.667L283.667 229.333L283.333 228.667M294 228L295 229L294 228z"/>
<path style="fill:#817645; stroke:none;" d="M384 228L385 229L384 228z"/>
<path style="fill:#b39f51; stroke:none;" d="M389 228L390 229L389 228M398 228L398 233L399 233L398 228M93 229L93 230L97 230L93 229z"/>
<path style="fill:#817645; stroke:none;" d="M109 229L110 230L109 229z"/>
<path style="fill:#fede59; stroke:none;" d="M122 243L131 242L131 243C126.423 243.686 122.371 244.833 120 249L132 247L132 242L136 246C131.109 252.714 122.428 254.21 118.14 260.39C112.762 268.141 114.058 284.799 113 294L163 289L159 267C153.894 268.613 146.466 271.373 142.789 275.39C139.23 279.278 138.236 285.044 134.32 288.663C132.324 290.508 129.678 290.606 128.425 287.847C124.864 280.006 137.64 276.751 131 268C144.471 269.544 156.456 240.868 157 229C144.507 231.319 123.336 226.662 122 243z"/>
<path style="fill:#817645; stroke:none;" d="M197.333 229.667L197.667 230.333L197.333 229.667z"/>
<path style="fill:#b39f51; stroke:none;" d="M209 229L209 232L210 232L209 229M233.333 229.667L233.667 230.333L233.333 229.667z"/>
<path style="fill:#817645; stroke:none;" d="M260 229L261 230L260 229M294 229L295 230L294 229M307 229L308 230L307 229M342 229L342 232L343 232L342 229M363 229L364 230L363 229z"/>
<path style="fill:#b39f51; stroke:none;" d="M383 229L384 230L383 229z"/>
<path style="fill:#817645; stroke:none;" d="M388 229L389 230L388 229M92 230L93 231L92 230z"/>
<path style="fill:#b39f51; stroke:none;" d="M97.3333 230.667L97.6667 231.333L97.3333 230.667M124 230L125 231L124 230M259 230L260 231L259 230M293 230L294 231L293 230z"/>
<path style="fill:#fede59; stroke:none;" d="M362 230L363 231L362 230z"/>
<path style="fill:#b39f51; stroke:none;" d="M388 230L389 231L388 230M108 231L109 232L108 231z"/>
<path style="fill:#817645; stroke:none;" d="M233.333 231.667L233.667 232.333L233.333 231.667M245.333 231.667L245.667 232.333L245.333 231.667M293 231L294 232L293 231z"/>
<path style="fill:#b39f51; stroke:none;" d="M381 231L382 232L381 231z"/>
<path style="fill:#817645; stroke:none;" d="M387 231L388 232L387 231M412.333 231.667L412.667 232.333L412.333 231.667M91 232L92 233L91 232z"/>
<path style="fill:#fede59; stroke:none;" d="M97 232L98 233L97 232z"/>
<path style="fill:#817645; stroke:none;" d="M108 232L109 233L108 232z"/>
<path style="fill:#b39f51; stroke:none;" d="M258 232L259 233L258 232M292 232L293 233L292 232M342.333 232.667L342.667 233.333L342.333 232.667z"/>
<path style="fill:#817645; stroke:none;" d="M362 232L363 233L362 232z"/>
<path style="fill:#b39f51; stroke:none;" d="M387 232L388 233L387 232z"/>
<path style="fill:#817645; stroke:none;" d="M123 233L124 234L123 233z"/>
<path style="fill:#b39f51; stroke:none;" d="M196.333 233.667L196.667 234.333L196.333 233.667M245.333 233.667L245.667 234.333L245.333 233.667z"/>
<path style="fill:#817645; stroke:none;" d="M258 233L259 234L258 233M282.333 233.667L282.667 234.333L282.333 233.667M292 233L293 234L292 233M386 233L387 234L386 233z"/>
<path style="fill:#b39f51; stroke:none;" d="M412.333 233.667L412.667 234.333L412.333 233.667M90 234L91 235L90 234z"/>
<path style="fill:#817645; stroke:none;" d="M96 234L97 235L96 234z"/>
<path style="fill:#fede59; stroke:none;" d="M108 234C105.01 234.555 100.035 234.205 97.5633 236.028C86.8922 243.896 99.344 258.199 104.982 244.945C106.433 241.535 106.995 237.57 108 234z"/>
<path style="fill:#b39f51; stroke:none;" d="M123 234L124 235L123 234M156 234L157 235L156 234z"/>
<path style="fill:#817645; stroke:none;" d="M208 234L208 237L209 237L208 234z"/>
<path style="fill:#b39f51; stroke:none;" d="M257 234L258 235L257 234M386 234L387 235L386 234M398 234L399 235L398 234M96 235L97 236L96 235M107.333 235.667L107.667 236.333L107.333 235.667z"/>
<path style="fill:#817645; stroke:none;" d="M156 235L157 236L156 235M196.333 235.667L196.667 236.333L196.333 235.667z"/>
<path style="fill:#b39f51; stroke:none;" d="M232.333 235.667L232.667 236.333L232.333 235.667z"/>
<path style="fill:#817645; stroke:none;" d="M257 235L258 236L257 235M262.667 235.333L263.333 235.667L262.667 235.333z"/>
<path style="fill:#b39f51; stroke:none;" d="M282.333 235.667L282.667 236.333L282.333 235.667z"/>
<path style="fill:#817645; stroke:none;" d="M291 235L292 236L291 235M307 235L308 236L307 235z"/>
<path style="fill:#b39f51; stroke:none;" d="M332 235L333 236L332 235M361 235L362 236L361 235z"/>
<path style="fill:#817645; stroke:none;" d="M385 235L386 236L385 235M398 235L399 236L398 235z"/>
<path style="fill:#fede59; stroke:none;" d="M73 238L75 259C84.9877 256.073 87.5535 245.658 89 236L73 238z"/>
<path style="fill:#b39f51; stroke:none;" d="M89 236L90 237L89 236z"/>
<path style="fill:#817645; stroke:none;" d="M122.333 236.667L122.667 237.333L122.333 236.667M260 236L261 237L260 236z"/>
<path style="fill:#b39f51; stroke:none;" d="M263 236L264 237L263 236M307 236L307 240L308 240L307 236z"/>
<path style="fill:#817645; stroke:none;" d="M332.333 236.667L332.667 237.333L332.333 236.667M361 236L362 237L361 236M89 237L90 238L89 237M95.3333 237.667L95.6667 238.333L95.3333 237.667M107 237L108 238L107 237M155 237L156 238L155 237z"/>
<path style="fill:#b39f51; stroke:none;" d="M208.333 237.667L208.667 238.333L208.333 237.667z"/>
<path style="fill:#817645; stroke:none;" d="M232 237L233 238L232 237M256 237L257 238L256 237z"/>
<path style="fill:#b39f51; stroke:none;" d="M259 237L260 238L259 237z"/>
<path style="fill:#817645; stroke:none;" d="M263.333 237.667L263.667 238.333L263.333 237.667M290 237L291 238L290 237M341.333 237.667L341.667 238.333L341.333 237.667z"/>
<path style="fill:#b39f51; stroke:none;" d="M384 237L385 238L384 237M122 238L123 239L122 238z"/>
<path style="fill:#817645; stroke:none;" d="M244.333 238.667L244.667 239.333L244.333 238.667z"/>
<path style="fill:#b39f51; stroke:none;" d="M360 238L361 239L360 238z"/>
<path style="fill:#817645; stroke:none;" d="M383 238L384 239L383 238z"/>
<path style="fill:#b39f51; stroke:none;" d="M397 238L398 239L397 238z"/>
<path style="fill:#817645; stroke:none;" d="M411.333 238.667L411.667 239.333L411.333 238.667z"/>
<path style="fill:#b39f51; stroke:none;" d="M88 239L89 240L88 239M95 239L96 240L95 239M106 239L107 240L106 239z"/>
<path style="fill:#817645; stroke:none;" d="M154 239L155 240L154 239M173.333 239.667L173.667 240.333L173.333 239.667z"/>
<path style="fill:#b39f51; stroke:none;" d="M195 239L196 240L195 239M255 239L257 241L255 239z"/>
<path style="fill:#817645; stroke:none;" d="M281 239L281 243L282 243L281 239M289 239L290 240L289 239M292 239L291 247L292 247L292 239z"/>
<path style="fill:#b39f51; stroke:none;" d="M341.333 239.667L341.667 240.333L341.333 239.667z"/>
<path style="fill:#817645; stroke:none;" d="M360.333 239.667L360.667 240.333L360.333 239.667M397 239L398 240L397 239M106 240L107 241L106 240M195.333 240.667L195.667 241.333L195.333 240.667z"/>
<path style="fill:#b39f51; stroke:none;" d="M231.333 240.667L231.667 241.333L231.333 240.667M244.333 240.667L244.667 241.333L244.333 240.667z"/>
<path style="fill:#817645; stroke:none;" d="M255 240L256 241L255 240z"/>
<path style="fill:#b39f51; stroke:none;" d="M288 240L289 241L288 240M331.333 240.667L331.667 241.333L331.333 240.667z"/>
<path style="fill:#817645; stroke:none;" d="M382 240L383 241L382 240z"/>
<path style="fill:#b39f51; stroke:none;" d="M411 240L412 241L411 240z"/>
<path style="fill:#817645; stroke:none;" d="M94 241L95 242L94 241M121 241L122 242L121 241M153 241L154 242L153 241z"/>
<path style="fill:#b39f51; stroke:none;" d="M173.333 241.667L173.667 242.333L173.333 241.667M262 241L263 242L262 241z"/>
<path style="fill:#817645; stroke:none;" d="M288 241L289 242L288 241z"/>
<path style="fill:#b39f51; stroke:none;" d="M397.333 241.667L397.667 242.333L397.333 241.667z"/>
<path style="fill:#817645; stroke:none;" d="M411.333 241.667L411.667 242.333L411.333 241.667M87 242L88 243L87 242z"/>
<path style="fill:#b39f51; stroke:none;" d="M94 242L95 243L94 242M127.333 242.667L127.667 243.333L127.333 242.667z"/>
<path style="fill:#817645; stroke:none;" d="M128.667 242.333L129.333 242.667L128.667 242.333z"/>
<path style="fill:#b39f51; stroke:none;" d="M130 242L131 243L130 242M132 242L131 244L132 242z"/>
<path style="fill:#817645; stroke:none;" d="M207.333 242.667L207.667 243.333L207.333 242.667M231.333 242.667L231.667 243.333L231.333 242.667M262.333 242.667L262.667 243.333L262.333 242.667z"/>
<path style="fill:#b39f51; stroke:none;" d="M287 242L288 243L287 242z"/>
<path style="fill:#817645; stroke:none;" d="M307 242L308 243L307 242M331 242L332 243L331 242M340.333 242.667L340.667 243.333L340.333 242.667z"/>
<path style="fill:#b39f51; stroke:none;" d="M359.333 242.667L359.667 243.333L359.333 242.667z"/>
<path style="fill:#817645; stroke:none;" d="M381 242L382 243L381 242z"/>
<path style="fill:#b39f51; stroke:none;" d="M105 243L106 244L105 243z"/>
<path style="fill:#817645; stroke:none;" d="M122 243L122 244L127 244L127 243L122 243z"/>
<path style="fill:#b39f51; stroke:none;" d="M123 243L124 244L123 243z"/>
<path style="fill:#817645; stroke:none;" d="M132 243L133 244L132 243M152 243L153 244L152 243z"/>
<path style="fill:#b39f51; stroke:none;" d="M281.333 243.667L281.667 244.333L281.333 243.667M307.333 243.667L307.667 244.333L307.333 243.667M381 243L382 244L381 243z"/>
<path style="fill:#817645; stroke:none;" d="M397 243L397 246L398 246L397 243z"/>
<path style="fill:#b39f51; stroke:none;" d="M86 244L87 245L86 244M93 244L94 245L93 244z"/>
<path style="fill:#817645; stroke:none;" d="M105 244L106 245L105 244z"/>
<path style="fill:#b39f51; stroke:none;" d="M124 244L125 245L124 244z"/>
<path style="fill:#817645; stroke:none;" d="M131.333 244.667L131.667 245.333L131.333 244.667M134 244L135 245L134 244z"/>
<path style="fill:#b39f51; stroke:none;" d="M194.333 244.667L194.667 245.333L194.333 244.667M207.333 244.667L207.667 245.333L207.333 244.667M286 244L287 245L286 244M289 244L290 245L289 244M330 244L331 245L330 244M340 244L341 245L340 244z"/>
<path style="fill:#817645; stroke:none;" d="M359 244L360 245L359 244M380 244L381 245L380 244M411.333 244.667L411.667 245.333L411.333 244.667M86 245L87 246L86 245M121 245L122 246L121 245z"/>
<path style="fill:#b39f51; stroke:none;" d="M122 245L123 246L122 245z"/>
<path style="fill:#817645; stroke:none;" d="M151 245L152 246L151 245z"/>
<path style="fill:#b39f51; stroke:none;" d="M230.333 245.667L230.667 246.333L230.333 245.667z"/>
<path style="fill:#817645; stroke:none;" d="M243.333 245.667L243.667 246.333L243.333 245.667z"/>
<path style="fill:#fede59; stroke:none;" d="M289 245L290 246L289 245z"/>
<path style="fill:#b39f51; stroke:none;" d="M380 245L381 246L380 245z"/>
<path style="fill:#817645; stroke:none;" d="M92 246L92 250L93 250L92 246M134 246L135 247L134 246z"/>
<path style="fill:#b39f51; stroke:none;" d="M135 246L136 247L135 246z"/>
<path style="fill:#817645; stroke:none;" d="M155 246L156 247L155 246z"/>
<path style="fill:#b39f51; stroke:none;" d="M156 246L157 247L156 246z"/>
<path style="fill:#817645; stroke:none;" d="M194 246L195 247L194 246M285 246L286 247L285 246M288 246L289 247L288 246z"/>
<path style="fill:#b39f51; stroke:none;" d="M289.333 246.667L289.667 247.333L289.333 246.667M329 246L330 247L329 246M358.333 246.667L358.667 247.333L358.333 246.667z"/>
<path style="fill:#817645; stroke:none;" d="M379 246L380 247L379 246z"/>
<path style="fill:#b39f51; stroke:none;" d="M397 246L397 250L398 250L397 246M411 246L412 247L411 246z"/>
<path style="fill:#817645; stroke:none;" d="M417 246L418 247L417 246M104 247L105 248L104 247z"/>
<path style="fill:#b39f51; stroke:none;" d="M129 247L130 248L129 247z"/>
<path style="fill:#817645; stroke:none;" d="M130.667 247.333L131.333 247.667L130.667 247.333z"/>
<path style="fill:#b39f51; stroke:none;" d="M133.667 247.333L134.333 247.667L133.667 247.333z"/>
<path style="fill:#817645; stroke:none;" d="M150 247L151 248L150 247z"/>
<path style="fill:#fede59; stroke:none;" d="M155 247L149 264C158.443 261.193 157.005 255.312 157 247L155 247z"/>
<path style="fill:#b39f51; stroke:none;" d="M178 247L179 248L178 247z"/>
<path style="fill:#817645; stroke:none;" d="M179 247L180 248L179 247M181 247L182 248L181 247z"/>
<path style="fill:#b39f51; stroke:none;" d="M182 247L183 248L182 247z"/>
<path style="fill:#817645; stroke:none;" d="M230 247L231 248L230 247z"/>
<path style="fill:#b39f51; stroke:none;" d="M243 247L243 250L244 250L243 247M284 247L285 248L284 247z"/>
<path style="fill:#817645; stroke:none;" d="M287 247L288 248L287 247z"/>
<path style="fill:#b39f51; stroke:none;" d="M291 247L291 250L292 250L291 247z"/>
<path style="fill:#817645; stroke:none;" d="M329.333 247.667L329.667 248.333L329.333 247.667M339 247L340 248L339 247z"/>
<path style="fill:#b39f51; stroke:none;" d="M416 247L417 248L416 247M418 247L419 248L418 247M85 248L86 249L85 248z"/>
<path style="fill:#817645; stroke:none;" d="M103 248L104 249L103 248z"/>
<path style="fill:#b39f51; stroke:none;" d="M123 248L124 249L123 248z"/>
<path style="fill:#817645; stroke:none;" d="M124.667 248.333L125.333 248.667L124.667 248.333z"/>
<path style="fill:#b39f51; stroke:none;" d="M154 248L155 249L154 248z"/>
<path style="fill:#817645; stroke:none;" d="M157 248L157 252L158 252L157 248M176 248L177 249L176 248z"/>
<path style="fill:#b39f51; stroke:none;" d="M183 248L184 249L183 248z"/>
<path style="fill:#817645; stroke:none;" d="M280.333 248.667L280.667 249.333L280.333 248.667z"/>
<path style="fill:#b39f51; stroke:none;" d="M306 248L307 249L306 248M339 248L340 249L339 248z"/>
<path style="fill:#817645; stroke:none;" d="M358.333 248.667L358.667 249.333L358.333 248.667z"/>
<path style="fill:#b39f51; stroke:none;" d="M378 248L379 249L378 248M415 248L416 249L415 248z"/>
<path style="fill:#817645; stroke:none;" d="M85 249L86 250L85 249z"/>
<path style="fill:#b39f51; stroke:none;" d="M100 249L101 250L100 249z"/>
<path style="fill:#817645; stroke:none;" d="M101 249L102 250L101 249M120 249L121 250L120 249M132 249L133 250L132 249M149 249L150 250L149 249z"/>
<path style="fill:#b39f51; stroke:none;" d="M174 249L175 250L174 249z"/>
<path style="fill:#817645; stroke:none;" d="M181 249L182 250L181 249z"/>
<path style="fill:#b39f51; stroke:none;" d="M193.333 249.667L193.667 250.333L193.333 249.667z"/>
<path style="fill:#817645; stroke:none;" d="M206.333 249.667L206.667 250.333L206.333 249.667M283 249L284 250L283 249z"/>
<path style="fill:#b39f51; stroke:none;" d="M286 249L287 250L286 249z"/>
<path style="fill:#817645; stroke:none;" d="M418 249L419 250L418 249M93 250L94 251L93 250z"/>
<path style="fill:#b39f51; stroke:none;" d="M97 250L98 251L97 250z"/>
<path style="fill:#817645; stroke:none;" d="M98 250L99 251L98 250M133 250L134 251L133 250M153 250L154 251L153 250z"/>
<path style="fill:#b39f51; stroke:none;" d="M180 250L181 251L180 250M229.333 250.667L229.667 251.333L229.333 250.667M281 250L282 251L281 250z"/>
<path style="fill:#817645; stroke:none;" d="M285 250L286 251L285 250M291.333 250.667L291.667 251.333L291.333 250.667z"/>
<path style="fill:#b39f51; stroke:none;" d="M305 250L306 251L305 250M377 250L378 251L377 250z"/>
<path style="fill:#817645; stroke:none;" d="M397 250L398 251L397 250z"/>
<path style="fill:#b39f51; stroke:none;" d="M411 250L412 251L411 250z"/>
<path style="fill:#817645; stroke:none;" d="M414 250L415 251L414 250z"/>
<path style="fill:#b39f51; stroke:none;" d="M84.3333 251.667L84.6667 252.333L84.3333 251.667M132.333 251.667L132.667 252.333L132.333 251.667z"/>
<path style="fill:#817645; stroke:none;" d="M148 251L149 252L148 251z"/>
<path style="fill:#b39f51; stroke:none;" d="M179 251L180 252L179 251z"/>
<path style="fill:#817645; stroke:none;" d="M193 251L194 252L193 251z"/>
<path style="fill:#b39f51; stroke:none;" d="M206.333 251.667L206.667 252.333L206.333 251.667M285 251L285 255L286 255L285 251M328.333 251.667L328.667 252.333L328.333 251.667z"/>
<path style="fill:#817645; stroke:none;" d="M338 251L339 252L338 251M376 251L377 252L376 251M413 251L414 252L413 251M417 251L418 252L417 251M99 252L100 253L99 252M152 252L153 253L152 252z"/>
<path style="fill:#b39f51; stroke:none;" d="M157 252L157 257L158 257L157 252z"/>
<path style="fill:#817645; stroke:none;" d="M177 252L178 253L177 252M229 252L230 253L229 252M242 252L242 255L243 255L242 252M304 252L305 253L304 252z"/>
<path style="fill:#b39f51; stroke:none;" d="M338 252L338 256L339 256L338 252M357 252L357 255L358 255L357 252M376 252L377 253L376 252z"/>
<path style="fill:#817645; stroke:none;" d="M84 253L85 254L84 253M94 255L97 254L94 255M129 253L130 254L129 253z"/>
<path style="fill:#b39f51; stroke:none;" d="M130 253L131 254L130 253z"/>
<path style="fill:#817645; stroke:none;" d="M147 253L148 254L147 253z"/>
<path style="fill:#b39f51; stroke:none;" d="M152 253L153 254L152 253M176 253L177 254L176 253M261.333 253.667L261.667 254.333L261.333 253.667M289 253L289 257L290 257L289 253z"/>
<path style="fill:#817645; stroke:none;" d="M290 253L290 256L291 256L290 253z"/>
<path style="fill:#b39f51; stroke:none;" d="M304 253L305 254L304 253z"/>
<path style="fill:#817645; stroke:none;" d="M328.333 253.667L328.667 254.333L328.333 253.667z"/>
<path style="fill:#b39f51; stroke:none;" d="M416 253L417 254L416 253z"/>
<path style="fill:#817645; stroke:none;" d="M92 254L93 255L92 254z"/>
<path style="fill:#b39f51; stroke:none;" d="M93 254L94 255L93 254z"/>
<path style="fill:#817645; stroke:none;" d="M127 254L128 255L127 254z"/>
<path style="fill:#b39f51; stroke:none;" d="M128 254L129 255L128 254M175 254L176 255L175 254M192.333 254.667L192.667 255.333L192.333 254.667z"/>
<path style="fill:#817645; stroke:none;" d="M304 254L305 255L304 254M375 254L376 255L375 254M397 254L398 255L397 254z"/>
<path style="fill:#b39f51; stroke:none;" d="M83 255L84 256L83 255M98 256L98 257L103 256L98 256z"/>
<path style="fill:#817645; stroke:none;" d="M125 255L126 256L125 255M146 255L147 256L146 255z"/>
<path style="fill:#b39f51; stroke:none;" d="M151 255L152 256L151 255z"/>
<path style="fill:#817645; stroke:none;" d="M173 255L174 256L173 255z"/>
<path style="fill:#b39f51; stroke:none;" d="M228.333 255.667L228.667 256.333L228.333 255.667M242.333 255.667L242.667 256.333L242.333 255.667z"/>
<path style="fill:#817645; stroke:none;" d="M357 255L357 258L358 258L357 255z"/>
<path style="fill:#b39f51; stroke:none;" d="M375 255L376 256L375 255M397 255L398 256L397 255M415 255L416 256L415 255M82 256L83 257L82 256z"/>
<path style="fill:#817645; stroke:none;" d="M94.3333 256.667L94.6667 257.333L94.3333 256.667M97.3333 256.667L97.6667 257.333L97.3333 256.667M100 256L100 258L102 256L100 256M123 256L124 257L123 256M192 256L193 257L192 256M205.333 256.667L205.667 257.333L205.333 256.667M262 256L263 257L262 256z"/>
<path style="fill:#b39f51; stroke:none;" d="M284 256L285 257L284 256M327.333 256.667L327.667 257.333L327.333 256.667M339 256L340 257L339 256M341 256L341 257L344 257L341 256z"/>
<path style="fill:#817645; stroke:none;" d="M344.667 256.333L345.333 256.667L344.667 256.333M414 256L415 257L414 256z"/>
<path style="fill:#b39f51; stroke:none;" d="M80 257L82 259L80 257z"/>
<path style="fill:#817645; stroke:none;" d="M81 257L82 258L81 257z"/>
<path style="fill:#b39f51; stroke:none;" d="M95.6667 257.333L96.3333 257.667L95.6667 257.333M101 257L102 258L101 257M121 257L122 258L121 257z"/>
<path style="fill:#817645; stroke:none;" d="M145 257L146 258L145 257z"/>
<path style="fill:#b39f51; stroke:none;" d="M150 257L151 258L150 257z"/>
<path style="fill:#817645; stroke:none;" d="M228 257L229 258L228 257M263 257L264 258L263 257M283 257L284 258L283 257M289.333 257.667L289.667 258.333L289.333 257.667z"/>
<path style="fill:#b39f51; stroke:none;" d="M346 257L347 258L346 257z"/>
<path style="fill:#817645; stroke:none;" d="M374 257L375 258L374 257M413 257L414 258L413 257z"/>
<path style="fill:#b39f51; stroke:none;" d="M76.6667 258.333L77.3333 258.667L76.6667 258.333z"/>
<path style="fill:#817645; stroke:none;" d="M78 258L79 259L78 258M80 258L81 259L80 258z"/>
<path style="fill:#fede59; stroke:none;" d="M82 258L79 260L81 263L82 263L82 258z"/>
<path style="fill:#817645; stroke:none;" d="M83 258L84 259L83 258M118 258L119 259L118 258z"/>
<path style="fill:#b39f51; stroke:none;" d="M119 258L120 259L119 258M205 258L205 261L206 261L205 258z"/>
<path style="fill:#817645; stroke:none;" d="M282 258L283 259L282 258M309.333 258.667L309.667 259.333L309.333 258.667z"/>
<path style="fill:#b39f51; stroke:none;" d="M310 258L311 259L310 258z"/>
<path style="fill:#817645; stroke:none;" d="M327 258L328 259L327 258M346 258L347 259L346 258z"/>
<path style="fill:#b39f51; stroke:none;" d="M374 258L375 259L374 258z"/>
<path style="fill:#817645; stroke:none;" d="M398 258L399 259L398 258M412 258L413 259L412 258z"/>
<path style="fill:#b39f51; stroke:none;" d="M75 259L76 260L75 259M79 259L80 260L79 259z"/>
<path style="fill:#817645; stroke:none;" d="M117 259L118 260L117 259M144 259L145 260L144 259z"/>
<path style="fill:#b39f51; stroke:none;" d="M149 259L150 260L149 259M157 259L158 260L157 259M191.333 259.667L191.667 260.333L191.333 259.667z"/>
<path style="fill:#817645; stroke:none;" d="M241.333 259.667L241.667 260.333L241.333 259.667z"/>
<path style="fill:#b39f51; stroke:none;" d="M264 259L265 260L264 259z"/>
<path style="fill:#817645; stroke:none;" d="M281 259L282 260L281 259M290.333 259.667L290.667 260.333L290.333 259.667z"/>
<path style="fill:#b39f51; stroke:none;" d="M398 259L399 260L398 259M411 259L412 260L411 259z"/>
<path style="fill:#817645; stroke:none;" d="M75 260L76 261L75 260M78 260L79 261L78 260z"/>
<path style="fill:#b39f51; stroke:none;" d="M82.3333 260.667L82.6667 261.333L82.3333 260.667M117 260L118 261L117 260M143 260L144 261L143 260M156 260L157 261L156 260M227.333 260.667L227.667 261.333L227.333 260.667z"/>
<path style="fill:#817645; stroke:none;" d="M265 260L266 261L265 260M279 260L280 261L279 260z"/>
<path style="fill:#b39f51; stroke:none;" d="M288 260L288 264L289 264L288 260z"/>
<path style="fill:#817645; stroke:none;" d="M308 260L309 261L308 260M326 260L327 261L326 260M373 260L374 261L373 260z"/>
<path style="fill:#b39f51; stroke:none;" d="M409 260L410 261L409 260z"/>
<path style="fill:#817645; stroke:none;" d="M79 261L81 263L81 261L79 261M143 261L144 262L143 261M148.333 261.667L148.667 262.333L148.333 261.667M155 261L156 262L155 261M172 261L173 262L172 261M191 261L192 262L191 261z"/>
<path style="fill:#b39f51; stroke:none;" d="M241 261L242 262L241 261z"/>
<path style="fill:#817645; stroke:none;" d="M266 261L267 262L266 261M277 261L278 262L277 261z"/>
<path style="fill:#b39f51; stroke:none;" d="M278 261L279 262L278 261M290 261L290 264L291 264L290 261M307 261L308 262L307 261M324 261L325 262L324 261z"/>
<path style="fill:#817645; stroke:none;" d="M346 261L347 262L346 261z"/>
<path style="fill:#b39f51; stroke:none;" d="M373 261L374 262L373 261M399 261L400 262L399 261z"/>
<path style="fill:#817645; stroke:none;" d="M407 261L408 262L407 261z"/>
<path style="fill:#b39f51; stroke:none;" d="M74 262L75 263L74 262z"/>
<path style="fill:#817645; stroke:none;" d="M82 262L83 263L82 262M116 262L117 263L116 262z"/>
<path style="fill:#b39f51; stroke:none;" d="M142 262L143 263L142 262M153 262L154 263L153 262z"/>
<path style="fill:#817645; stroke:none;" d="M227.333 262.667L227.667 263.333L227.333 262.667z"/>
<path style="fill:#b39f51; stroke:none;" d="M267 262L268 263L267 262z"/>
<path style="fill:#817645; stroke:none;" d="M268 262L269 263L268 262M274 262L275 263L274 262z"/>
<path style="fill:#b39f51; stroke:none;" d="M275 262L276 263L275 262M306 262L307 263L306 262M322 262L323 263L322 262M346.333 262.667L346.667 263.333L346.333 262.667M401 262L402 263L401 262z"/>
<path style="fill:#817645; stroke:none;" d="M402 262L402 263L405 263L402 262z"/>
<path style="fill:#b39f51; stroke:none;" d="M405 262L406 263L405 262z"/>
<path style="fill:#817645; stroke:none;" d="M74 263L75 264L74 263z"/>
<path style="fill:#b39f51; stroke:none;" d="M79.6667 263.333L80.3333 263.667L79.6667 263.333M116.333 263.667L116.667 264.333L116.333 263.667M151 263L152 264L151 263z"/>
<path style="fill:#817645; stroke:none;" d="M152 263L153 264L152 263M171 263L173 265L173 263L171 263M204 263L205 264L204 263M320 263L321 264L320 263z"/>
<path style="fill:#b39f51; stroke:none;" d="M74 264L74 267L75 267L74 264z"/>
<path style="fill:#817645; stroke:none;" d="M98.6667 264.333L99.3333 264.667L98.6667 264.333M141 264L142 265L141 264z"/>
<path style="fill:#b39f51; stroke:none;" d="M190.333 264.667L190.667 265.333L190.333 264.667M204.333 264.667L204.667 265.333L204.333 264.667z"/>
<path style="fill:#817645; stroke:none;" d="M240.333 264.667L240.667 265.333L240.333 264.667M288 264L288 267L289 267L288 264M290 264L290 267L291 267L290 264M304 264L305 265L304 264z"/>
<path style="fill:#b39f51; stroke:none;" d="M318 264L319 265L318 264z"/>
<path style="fill:#817645; stroke:none;" d="M357 264L357 274L358 274L357 264M372.333 264.667L372.667 265.333L372.333 264.667M96 265L97 266L96 265z"/>
<path style="fill:#fede59; stroke:none;" d="M84 297L97 296L101 265C85.6917 267.004 87.1716 285.136 84 297z"/>
<path style="fill:#b39f51; stroke:none;" d="M140 265L141 266L140 265z"/>
<path style="fill:#817645; stroke:none;" d="M171 265L171 268L172 268L171 265z"/>
<path style="fill:#b39f51; stroke:none;" d="M316 265L317 266L316 265M345 265L345 268L346 268L345 265M95 266L96 267L95 266z"/>
<path style="fill:#817645; stroke:none;" d="M101 266L101 270L102 270L101 266M157 266L158 267L157 266z"/>
<path style="fill:#b39f51; stroke:none;" d="M158 266L159 267L158 266z"/>
<path style="fill:#817645; stroke:none;" d="M190.333 266.667L190.667 267.333L190.333 266.667z"/>
<path style="fill:#b39f51; stroke:none;" d="M226.333 266.667L226.667 267.333L226.333 266.667M240 266L240 269L241 269L240 266M315 266L316 267L315 266z"/>
<path style="fill:#817645; stroke:none;" d="M335.667 266.333L336.333 266.667L335.667 266.333z"/>
<path style="fill:#b39f51; stroke:none;" d="M337 266L338 267L337 266z"/>
<path style="fill:#817645; stroke:none;" d="M339 266L340 267L339 266z"/>
<path style="fill:#b39f51; stroke:none;" d="M372 266L373 267L372 266z"/>
<path style="fill:#817645; stroke:none;" d="M74 267L74 271L75 271L74 267z"/>
<path style="fill:#b39f51; stroke:none;" d="M93 267L94 268L93 267z"/>
<path style="fill:#817645; stroke:none;" d="M139 267L140 268L139 267z"/>
<path style="fill:#b39f51; stroke:none;" d="M156 267L157 268L156 267z"/>
<path style="fill:#817645; stroke:none;" d="M303 267L304 268L303 267M332 267L333 268L332 267z"/>
<path style="fill:#b39f51; stroke:none;" d="M333 267L334 268L333 267M339 267L342 269L342 268L339 267z"/>
<path style="fill:#817645; stroke:none;" d="M91 268L92 269L91 268M115 268L115 271L116 271L115 268z"/>
<path style="fill:#b39f51; stroke:none;" d="M131.333 268.667L131.667 269.333L131.333 268.667z"/>
<path style="fill:#817645; stroke:none;" d="M133 268L134 269L133 268z"/>
<path style="fill:#b39f51; stroke:none;" d="M134 268L135 269L134 268M138 268L139 269L138 268z"/>
<path style="fill:#817645; stroke:none;" d="M154 268L155 269L154 268M203.333 268.667L203.667 269.333L203.333 268.667M226.333 268.667L226.667 269.333L226.333 268.667z"/>
<path style="fill:#b39f51; stroke:none;" d="M303.333 268.667L303.667 269.333L303.333 268.667M314 268L315 269L314 268z"/>
<path style="fill:#817645; stroke:none;" d="M330 268L331 269L330 268z"/>
<path style="fill:#b39f51; stroke:none;" d="M335 268L337 270L335 268z"/>
<path style="fill:#817645; stroke:none;" d="M336.667 268.333L337.333 268.667L336.667 268.333z"/>
<path style="fill:#252524; stroke:none;" d="M338 268L339 269L338 268z"/>
<path style="fill:#817645; stroke:none;" d="M339 268L340 269L339 268M344 268L345 269L344 268M371 268L372 269L371 268M90 269L91 270L90 269M136.667 269.333L137.333 269.667L136.667 269.333M152 269L153 270L152 269z"/>
<path style="fill:#b39f51; stroke:none;" d="M153 269L154 270L153 269z"/>
<path style="fill:#817645; stroke:none;" d="M159.333 269.667L159.667 270.333L159.333 269.667M287 269L288 270L287 269M326.667 269.333L327.333 269.667L326.667 269.333z"/>
<path style="fill:#b39f51; stroke:none;" d="M328 269L329 270L328 269M333 269L334 270L333 269z"/>
<path style="fill:#817645; stroke:none;" d="M334.667 269.333L335.333 269.667L334.667 269.333M89 270L90 271L89 270M133 270L134 271L133 270M150 270L151 271L150 270z"/>
<path style="fill:#b39f51; stroke:none;" d="M151 270L152 271L151 270M189.333 270.667L189.667 271.333L189.333 270.667M203.333 270.667L203.667 271.333L203.333 270.667M240.333 270.667L240.667 271.333L240.333 270.667z"/>
<path style="fill:#817645; stroke:none;" d="M286 270L287 271L286 270z"/>
<path style="fill:#b39f51; stroke:none;" d="M313 270L314 271L313 270z"/>
<path style="fill:#817645; stroke:none;" d="M322 270L323 271L322 270z"/>
<path style="fill:#b39f51; stroke:none;" d="M323 270L324 271L323 270M329 270L329 271L333 271L329 270z"/>
<path style="fill:#fede59; stroke:none;" d="M370 270L371 271L370 270z"/>
<path style="fill:#b39f51; stroke:none;" d="M74 271L75 272L74 271M115.333 271.667L115.667 272.333L115.333 271.667M134 271L135 272L134 271M148 271L149 272L148 271M159 271L160 272L159 271M254 271L254 272L261 272L254 271z"/>
<path style="fill:#817645; stroke:none;" d="M284 271L285 272L284 271M302 271L302 275L303 275L302 271M313.333 271.667L313.667 272.333L313.333 271.667z"/>
<path style="fill:#b39f51; stroke:none;" d="M320 271L321 272L320 271M325 271L325 272L329 272L325 271z"/>
<path style="fill:#817645; stroke:none;" d="M368 271L369 272L368 271M88 272L89 273L88 272z"/>
<path style="fill:#b39f51; stroke:none;" d="M100 272L101 273L100 272M135 272L136 273L135 272z"/>
<path style="fill:#817645; stroke:none;" d="M145 272L146 273L145 272z"/>
<path style="fill:#b39f51; stroke:none;" d="M146 272L147 273L146 272M172 272L172 281L173 281L172 272z"/>
<path style="fill:#817645; stroke:none;" d="M189 272L190 273L189 272z"/>
<path style="fill:#b39f51; stroke:none;" d="M225.333 272.667L225.667 273.333L225.333 272.667M248 272L249 273L248 272z"/>
<path style="fill:#817645; stroke:none;" d="M249.667 272.333L250.333 272.667L249.667 272.333M262 272L264 274L262 272z"/>
<path style="fill:#b39f51; stroke:none;" d="M263 272L264 273L263 272M282 272L283 273L282 272z"/>
<path style="fill:#817645; stroke:none;" d="M317 273L317 274L324 273L317 273z"/>
<path style="fill:#b39f51; stroke:none;" d="M324 272L325 273L324 272M367 272L368 273L367 272z"/>
<path style="fill:#fede59; stroke:none;" d="M75 273L77 282L78 282L75 273z"/>
<path style="fill:#817645; stroke:none;" d="M76 273L77 274L76 273z"/>
<path style="fill:#b39f51; stroke:none;" d="M88 273L89 274L88 273z"/>
<path style="fill:#817645; stroke:none;" d="M100.333 273.667L100.667 274.333L100.333 273.667M135 273L136 274L135 273z"/>
<path style="fill:#b39f51; stroke:none;" d="M144 273L145 274L144 273z"/>
<path style="fill:#817645; stroke:none;" d="M242 273L242 274L246 274L242 273z"/>
<path style="fill:#b39f51; stroke:none;" d="M280 273L281 274L280 273z"/>
<path style="fill:#817645; stroke:none;" d="M314 273L315 274L314 273z"/>
<path style="fill:#b39f51; stroke:none;" d="M319 273L320 274L319 273z"/>
<path style="fill:#fede59; stroke:none;" d="M320 273L321 274L320 273z"/>
<path style="fill:#817645; stroke:none;" d="M365 273L366 274L365 273M78 274L79 275L78 274M134 274L135 275L134 274M160.333 274.667L160.667 275.333L160.333 274.667z"/>
<path style="fill:#b39f51; stroke:none;" d="M203 274L204 275L203 274z"/>
<path style="fill:#817645; stroke:none;" d="M225.333 274.667L225.667 275.333L225.333 274.667z"/>
<path style="fill:#b39f51; stroke:none;" d="M278 274L279 275L278 274z"/>
<path style="fill:#817645; stroke:none;" d="M279 274L280 275L279 274z"/>
<path style="fill:#fede59; stroke:none;" d="M357 274L358 275L357 274z"/>
<path style="fill:#817645; stroke:none;" d="M363 274L364 275L363 274z"/>
<path style="fill:#fede59; stroke:none;" d="M364 274L365 275L364 274z"/>
<path style="fill:#b39f51; stroke:none;" d="M78 275L78 278L79 278L78 275M133 275L134 276L133 275M142 275L143 276L142 275z"/>
<path style="fill:#817645; stroke:none;" d="M203 275L204 276L203 275z"/>
<path style="fill:#b39f51; stroke:none;" d="M215.667 275.333L216.333 275.667L215.667 275.333z"/>
<path style="fill:#817645; stroke:none;" d="M217 275L217 276L224 276L217 275z"/>
<path style="fill:#b39f51; stroke:none;" d="M224 275L225 276L224 275z"/>
<path style="fill:#817645; stroke:none;" d="M258 275L259 276L258 275z"/>
<path style="fill:#b39f51; stroke:none;" d="M259.667 275.333L260.333 275.667L259.667 275.333z"/>
<path style="fill:#817645; stroke:none;" d="M277 275L278 276L277 275z"/>
<path style="fill:#b39f51; stroke:none;" d="M284 275L285 276L284 275z"/>
<path style="fill:#817645; stroke:none;" d="M285 275L286 276L285 275z"/>
<path style="fill:#fede59; stroke:none;" d="M359.667 275.333L360.333 275.667L359.667 275.333z"/>
<path style="fill:#817645; stroke:none;" d="M87.3333 276.667L87.6667 277.333L87.3333 276.667z"/>
<path style="fill:#b39f51; stroke:none;" d="M99.3333 276.667L99.6667 277.333L99.3333 276.667z"/>
<path style="fill:#817645; stroke:none;" d="M114 276L114 279L115 279L114 276M141 276L142 277L141 276z"/>
<path style="fill:#b39f51; stroke:none;" d="M160 276L161 277L160 276M188.333 276.667L188.667 277.333L188.333 276.667M204 276L205 277L204 276M210 276L211 277L210 276z"/>
<path style="fill:#817645; stroke:none;" d="M211.667 276.333L212.333 276.667L211.667 276.333M256 276L257 277L256 276M275 276L276 277L275 276z"/>
<path style="fill:#b39f51; stroke:none;" d="M282 276L283 277L282 276z"/>
<path style="fill:#fede59; stroke:none;" d="M283.667 276.333L284.333 276.667L283.667 276.333z"/>
<path style="fill:#ffffff; stroke:none;" d="M285 276L266 285C270.23 296.607 286.686 284.642 285 276z"/>
<path style="fill:#817645; stroke:none;" d="M206 277L207 278L206 277M252 277L253 278L252 277z"/>
<path style="fill:#b39f51; stroke:none;" d="M253 277L254 278L253 277M273 277L274 278L273 277z"/>
<path style="fill:#817645; stroke:none;" d="M280 277L281 278L280 277M301 277L302 278L301 277M78.3333 278.667L78.6667 279.333L78.3333 278.667z"/>
<path style="fill:#b39f51; stroke:none;" d="M87 278L87 283L88 283L87 278z"/>
<path style="fill:#817645; stroke:none;" d="M99 278L99 284L100 284L99 278M131 278L132 279L131 278M140 278L141 279L140 278M161 278L162 279L161 278M188 278L189 279L188 278M224 278L225 279L224 278M250 278L251 279L250 278z"/>
<path style="fill:#b39f51; stroke:none;" d="M271 278L272 279L271 278z"/>
<path style="fill:#817645; stroke:none;" d="M279 278L280 279L279 278z"/>
<path style="fill:#b39f51; stroke:none;" d="M285 278L286 279L285 278M301 278L302 279L301 278M114.333 279.667L114.667 280.333L114.333 279.667M130 279L131 280L130 279M161 279L162 280L161 279M221 279L222 280L221 279z"/>
<path style="fill:#fede59; stroke:none;" d="M212 283L212 284C216.659 283.8 222.346 283.988 224 279L212 283z"/>
<path style="fill:#b39f51; stroke:none;" d="M224 279L225 280L224 279z"/>
<path style="fill:#817645; stroke:none;" d="M248 279L249 280L248 279z"/>
<path style="fill:#b39f51; stroke:none;" d="M249 279L250 280L249 279z"/>
<path style="fill:#fede59; stroke:none;" d="M269 279L270 280L269 279z"/>
<path style="fill:#817645; stroke:none;" d="M270 279L271 280L270 279M277 279L278 280L277 279z"/>
<path style="fill:#fede59; stroke:none;" d="M278 279L279 280L278 279z"/>
<path style="fill:#817645; stroke:none;" d="M285 279L286 280L285 279M139 280L140 281L139 280M218 280L219 281L218 280z"/>
<path style="fill:#b39f51; stroke:none;" d="M219 280L220 281L219 280z"/>
<path style="fill:#817645; stroke:none;" d="M224 280L225 281L224 280z"/>
<path style="fill:#b39f51; stroke:none;" d="M247 280L248 281L247 280M267 280L268 281L267 280z"/>
<path style="fill:#817645; stroke:none;" d="M268 280L269 281L268 280M275 280L276 281L275 280z"/>
<path style="fill:#fede59; stroke:none;" d="M276 280L277 281L276 280z"/>
<path style="fill:#817645; stroke:none;" d="M300 280L301 281L300 280M129 281L130 282L129 281M162 281L163 282L162 281M172 281L173 282L172 281M215 281L216 282L215 281z"/>
<path style="fill:#b39f51; stroke:none;" d="M216 281L217 282L216 281z"/>
<path style="fill:#817645; stroke:none;" d="M245 281L246 282L245 281z"/>
<path style="fill:#fede59; stroke:none;" d="M264 281L265 282L264 281z"/>
<path style="fill:#817645; stroke:none;" d="M265 281L266 282L265 281M273 281L274 282L273 281z"/>
<path style="fill:#b39f51; stroke:none;" d="M274 281L275 282L274 281z"/>
<path style="fill:#817645; stroke:none;" d="M284 281L285 282L284 281z"/>
<path style="fill:#b39f51; stroke:none;" d="M77 282L78 283L77 282M128 282L129 283L128 282z"/>
<path style="fill:#817645; stroke:none;" d="M138 282L139 283L138 282z"/>
<path style="fill:#b39f51; stroke:none;" d="M162 282L163 283L162 282M187.333 282.667L187.667 283.333L187.333 282.667M213 282L214 283L213 282M223 282L224 283L223 282z"/>
<path style="fill:#817645; stroke:none;" d="M243 282L244 283L243 282z"/>
<path style="fill:#fede59; stroke:none;" d="M261 282L262 283L261 282z"/>
<path style="fill:#817645; stroke:none;" d="M262 282L263 283L262 282M271 282L272 283L271 282z"/>
<path style="fill:#fede59; stroke:none;" d="M272 282L273 283L272 282z"/>
<path style="fill:#b39f51; stroke:none;" d="M283 282L284 283L283 282z"/>
<path style="fill:#817645; stroke:none;" d="M299 282L300 283L299 282M77.3333 283.667L77.6667 284.333L77.3333 283.667M128 283L129 284L128 283M211 283L212 284L211 283z"/>
<path style="fill:#b39f51; stroke:none;" d="M242 283L243 284L242 283z"/>
<path style="fill:#fede59; stroke:none;" d="M259 283L260 284L259 283z"/>
<path style="fill:#817645; stroke:none;" d="M260 283L261 284L260 283M268 283L269 284L268 283z"/>
<path style="fill:#fede59; stroke:none;" d="M269 283L270 284L269 283M282 283L283 284L282 283z"/>
<path style="fill:#817645; stroke:none;" d="M298 283L299 284L298 283M113 284L113 287L114 287L113 284z"/>
<path style="fill:#b39f51; stroke:none;" d="M127 284L128 285L127 284M137 284L138 285L137 284z"/>
<path style="fill:#817645; stroke:none;" d="M163 284L164 285L163 284z"/>
<path style="fill:#b39f51; stroke:none;" d="M173 284L174 285L173 284z"/>
<path style="fill:#817645; stroke:none;" d="M187 284L188 285L187 284M209 284L210 285L209 284z"/>
<path style="fill:#fede59; stroke:none;" d="M210 284L211 285L210 284z"/>
<path style="fill:#817645; stroke:none;" d="M222 284L223 285L222 284M240 284L241 285L240 284M258 284L259 285L258 284z"/>
<path style="fill:#b39f51; stroke:none;" d="M266 284L267 285L266 284M297 284L298 285L297 284z"/>
<path style="fill:#817645; stroke:none;" d="M86.3333 285.667L86.6667 286.333L86.3333 285.667M127 285L128 286L127 285z"/>
<path style="fill:#b39f51; stroke:none;" d="M163 285L164 286L163 285z"/>
<path style="fill:#817645; stroke:none;" d="M173.333 285.667L173.667 286.333L173.333 285.667z"/>
<path style="fill:#b39f51; stroke:none;" d="M208 285L209 286L208 285z"/>
<path style="fill:#817645; stroke:none;" d="M221 285L222 286L221 285z"/>
<path style="fill:#fede59; stroke:none;" d="M239 285L240 286L239 285z"/>
<path style="fill:#817645; stroke:none;" d="M257 285L258 286L257 285z"/>
<path style="fill:#b39f51; stroke:none;" d="M265 285L266 286L265 285z"/>
<path style="fill:#fede59; stroke:none;" d="M280 285L281 286L280 285z"/>
<path style="fill:#817645; stroke:none;" d="M295 285L296 286L295 285z"/>
<path style="fill:#b39f51; stroke:none;" d="M127 286L128 287L127 286M136 286L137 287L136 286z"/>
<path style="fill:#817645; stroke:none;" d="M163.333 286.667L163.667 287.333L163.333 286.667z"/>
<path style="fill:#b39f51; stroke:none;" d="M186 286L187 287L186 286M206 286L207 287L206 286M220 286L220 291L221 291L220 286z"/>
<path style="fill:#fede59; stroke:none;" d="M238 286L239 287L238 286z"/>
<path style="fill:#b39f51; stroke:none;" d="M256 286L257 287L256 286z"/>
<path style="fill:#817645; stroke:none;" d="M265 286L266 287L265 286z"/>
<path style="fill:#b39f51; stroke:none;" d="M279 286L280 287L279 286M293 286L294 287L293 286M86.3333 287.667L86.6667 288.333L86.3333 287.667M98.3333 287.667L98.6667 288.333L98.3333 287.667z"/>
<path style="fill:#817645; stroke:none;" d="M135 287L136 288L135 287M204 287L205 288L204 287z"/>
<path style="fill:#fede59; stroke:none;" d="M237 287L238 288L237 287z"/>
<path style="fill:#817645; stroke:none;" d="M256 287L257 288L256 287z"/>
<path style="fill:#fede59; stroke:none;" d="M266 287L267 288L266 287z"/>
<path style="fill:#817645; stroke:none;" d="M278 287L279 288L278 287M291 287L292 288L291 287z"/>
<path style="fill:#fede59; stroke:none;" d="M76 288L77 289L76 288z"/>
<path style="fill:#817645; stroke:none;" d="M128 288L129 289L128 288z"/>
<path style="fill:#b39f51; stroke:none;" d="M134 288L135 289L134 288M163 288L164 289L163 288z"/>
<path style="fill:#817645; stroke:none;" d="M185 288L186 289L185 288z"/>
<path style="fill:#b39f51; stroke:none;" d="M203 288L204 289L203 288z"/>
<path style="fill:#fede59; stroke:none;" d="M236 288L237 289L236 288z"/>
<path style="fill:#b39f51; stroke:none;" d="M256 288L257 289L256 288M276 288L277 289L276 288z"/>
<path style="fill:#817645; stroke:none;" d="M289 288L290 289L289 288z"/>
<path style="fill:#b39f51; stroke:none;" d="M76.3333 289.667L76.6667 290.333L76.3333 289.667z"/>
<path style="fill:#817645; stroke:none;" d="M98.3333 289.667L98.6667 290.333L98.3333 289.667z"/>
<path style="fill:#b39f51; stroke:none;" d="M113 289L113 292L114 292L113 289M128 289L129 290L128 289z"/>
<path style="fill:#817645; stroke:none;" d="M133 289L134 290L133 289M164 289L165 290L164 289z"/>
<path style="fill:#b39f51; stroke:none;" d="M174.333 289.667L174.667 290.333L174.333 289.667z"/>
<path style="fill:#817645; stroke:none;" d="M184 289L185 290L184 289M257 289L258 290L257 289M267 289L268 290L267 289M275 289L276 290L275 289M287 289L288 290L287 289M85.3333 290.667L85.6667 291.333L85.3333 290.667z"/>
<path style="fill:#b39f51; stroke:none;" d="M129 290L130 291L129 290z"/>
<path style="fill:#817645; stroke:none;" d="M130.667 290.333L131.333 290.667L130.667 290.333z"/>
<path style="fill:#b39f51; stroke:none;" d="M132.667 290.333L133.333 290.667L132.667 290.333M164 290L165 291L164 290M183 290L183 294L184 294L183 290z"/>
<path style="fill:#817645; stroke:none;" d="M233 290L234 291L233 290M258 290L259 291L258 290z"/>
<path style="fill:#fede59; stroke:none;" d="M270 290L271 291L270 290z"/>
<path style="fill:#b39f51; stroke:none;" d="M273 290L274 291L273 290z"/>
<path style="fill:#817645; stroke:none;" d="M285 290L286 291L285 290z"/>
<path style="fill:#fede59; stroke:none;" d="M286 290L287 291L286 290z"/>
<path style="fill:#817645; stroke:none;" d="M76.3333 291.667L76.6667 292.333L76.3333 291.667M174 291L174 295L175 295L174 291M232 291L233 292L232 291M283 291L284 292L283 291z"/>
<path style="fill:#fede59; stroke:none;" d="M284 291L285 292L284 291z"/>
<path style="fill:#b39f51; stroke:none;" d="M85 292L86 293L85 292M97 292L97 297L98 297L97 292M165 292L166 293L165 292z"/>
<path style="fill:#817645; stroke:none;" d="M221 292L222 293L221 292M231 292L232 293L231 292z"/>
<path style="fill:#b39f51; stroke:none;" d="M282 292L283 293L282 292z"/>
<path style="fill:#817645; stroke:none;" d="M166 293L167 294L166 293M197 293L198 294L197 293z"/>
<path style="fill:#fede59; stroke:none;" d="M221 293L222 294L221 293z"/>
<path style="fill:#b39f51; stroke:none;" d="M230 293L231 294L230 293z"/>
<path style="fill:#817645; stroke:none;" d="M261 293L262 294L261 293M274 293L275 294L274 293z"/>
<path style="fill:#b39f51; stroke:none;" d="M275 293L276 294L275 293M277 293L278 294L277 293z"/>
<path style="fill:#817645; stroke:none;" d="M278.667 293.333L279.333 293.667L278.667 293.333z"/>
<path style="fill:#fede59; stroke:none;" d="M280 293L281 294L280 293z"/>
<path style="fill:#817645; stroke:none;" d="M84 294L85 295L84 294z"/>
<path style="fill:#fede59; stroke:none;" d="M183 294L184 295L183 294z"/>
<path style="fill:#b39f51; stroke:none;" d="M196 294L197 295L196 294M222 294L223 295L222 294z"/>
<path style="fill:#817645; stroke:none;" d="M228 294L229 295L228 294z"/>
<path style="fill:#fede59; stroke:none;" d="M263 294L264 295L263 294z"/>
<path style="fill:#b39f51; stroke:none;" d="M264 294L264 295L271 295L264 294z"/>
<path style="fill:#fede59; stroke:none;" d="M271 294L272 295L271 294M167 295L168 296L167 295z"/>
<path style="fill:#817645; stroke:none;" d="M172 295L173 296L172 295z"/>
<path style="fill:#fede59; stroke:none;" d="M173 295L174 296L173 295z"/>
<path style="fill:#b39f51; stroke:none;" d="M195 295L196 296L195 295z"/>
<path style="fill:#817645; stroke:none;" d="M224 295L225 296L224 295z"/>
<path style="fill:#b39f51; stroke:none;" d="M226 295L227 296L226 295z"/>
<path style="fill:#817645; stroke:none;" d="M76 296L77 297L76 296z"/>
<path style="fill:#b39f51; stroke:none;" d="M83 296L84 297L83 296z"/>
<path style="fill:#817645; stroke:none;" d="M169 296L170 297L169 296z"/>
<path style="fill:#b39f51; stroke:none;" d="M171 296L172 297L171 296z"/>
<path style="fill:#817645; stroke:none;" d="M184 296L185 297L184 296z"/>
<path style="fill:#b39f51; stroke:none;" d="M194 296L195 297L194 296M76 297L77 298L76 297z"/>
<path style="fill:#817645; stroke:none;" d="M82 297L83 298L82 297M112 297L113 298L112 297M192 297L193 298L192 297z"/>
<path style="fill:#b39f51; stroke:none;" d="M77.6667 298.333L78.3333 298.667L77.6667 298.333z"/>
<path style="fill:#fede59; stroke:none;" d="M79.6667 298.333L80.3333 298.667L79.6667 298.333M97 298L98 299L97 298z"/>
<path style="fill:#b39f51; stroke:none;" d="M112 298L113 299L112 298z"/>
<path style="fill:#fede59; stroke:none;" d="M185 298L186 299L185 298z"/>
<path style="fill:#817645; stroke:none;" d="M186 298L187 299L186 298M190 298L191 299L190 298z"/>
<path style="fill:#b39f51; stroke:none;" d="M191 298L192 299L191 298M97.3333 299.667L97.6667 300.333L97.3333 299.667M187 299L188 300L187 299z"/>
<path style="fill:#817645; stroke:none;" d="M188 299L189 300L188 299z"/>
<path style="fill:#fede59; stroke:none;" d="M189 299L190 300L189 299z"/>
<path style="fill:#817645; stroke:none;" d="M111 300L112 301L111 300z"/>
<path style="fill:#fede59; stroke:none;" d="M97 301L98 302L97 301z"/>
<path style="fill:#817645; stroke:none;" d="M110 301L111 302L110 301z"/>
<path style="fill:#fede59; stroke:none;" d="M108 302L109 303L108 302z"/>
<path style="fill:#b39f51; stroke:none;" d="M106 303L107 304L106 303z"/>
<path style="fill:#fede59; stroke:none;" d="M97 304L98 305L97 304z"/>
<path style="fill:#817645; stroke:none;" d="M104 304L105 305L104 304z"/>
<path style="fill:#b39f51; stroke:none;" d="M97 305L98 306L97 305z"/>
<path style="fill:#817645; stroke:none;" d="M101 305L102 306L101 305z"/>
<path style="fill:#b39f51; stroke:none;" d="M102 305L103 306L102 305M98 306L99 307L98 306M100 306L101 307L100 306z"/>
</svg>
